<?xml version="1.0" encoding="UTF-8" standalone="no"?>
<!-- Created with Inkscape (http://www.inkscape.org/) -->

<svg
   xmlns:osb="http://www.openswatchbook.org/uri/2009/osb"
   xmlns:dc="http://purl.org/dc/elements/1.1/"
   xmlns:cc="http://creativecommons.org/ns#"
   xmlns:rdf="http://www.w3.org/1999/02/22-rdf-syntax-ns#"
   xmlns:svg="http://www.w3.org/2000/svg"
   xmlns="http://www.w3.org/2000/svg"
   xmlns:xlink="http://www.w3.org/1999/xlink"
   xmlns:sodipodi="http://sodipodi.sourceforge.net/DTD/sodipodi-0.dtd"
   xmlns:inkscape="http://www.inkscape.org/namespaces/inkscape"
   width="25"
   height="25"
   id="svg2"
   version="1.1"
   inkscape:version="0.48.1 r9760"
   sodipodi:docname="agit-notifiction-icon.svg"
   inkscape:export-filename="/home/roberto/development/agit-parent/agit/res/drawable-mdpi/agit_notification_icon.png"
   inkscape:export-xdpi="90"
   inkscape:export-ydpi="90">
  <defs
     id="defs4">
    <linearGradient
       id="linearGradient5350">
      <stop
         style="stop-color:#5a5a5a;stop-opacity:1;"
         offset="0"
         id="stop5352" />
      <stop
         style="stop-color:#7b7b7b;stop-opacity:1;"
         offset="1"
         id="stop5354" />
    </linearGradient>
    <linearGradient
       id="linearGradient5342">
      <stop
         style="stop-color:#af241a;stop-opacity:1;"
         offset="0"
         id="stop5344" />
      <stop
         style="stop-color:#e64d42;stop-opacity:1;"
         offset="1"
         id="stop5346" />
    </linearGradient>
    <linearGradient
       id="linearGradient5334">
      <stop
         style="stop-color:#197020;stop-opacity:1;"
         offset="0"
         id="stop5336" />
      <stop
         style="stop-color:#2cb637;stop-opacity:1;"
         offset="1"
         id="stop5338" />
    </linearGradient>
    <linearGradient
       id="linearGradient5299"
       osb:paint="solid">
      <stop
         style="stop-color:#000000;stop-opacity:1;"
         offset="0"
         id="stop5301" />
    </linearGradient>
    <linearGradient
       id="linearGradient5279">
      <stop
         style="stop-color:#669900;stop-opacity:1;"
         offset="0"
         id="stop5281" />
      <stop
         style="stop-color:#99cc33;stop-opacity:1;"
         offset="1"
         id="stop5283" />
    </linearGradient>
    <linearGradient
       id="linearGradient3827"
       osb:paint="gradient">
      <stop
         style="stop-color:#000000;stop-opacity:1;"
         offset="0"
         id="stop3829" />
      <stop
         style="stop-color:#000000;stop-opacity:0;"
         offset="1"
         id="stop3831" />
    </linearGradient>
    <linearGradient
       inkscape:collect="always"
       xlink:href="#linearGradient5279"
       id="linearGradient5311"
       x1="38.27774"
       y1="85.598885"
       x2="38.27774"
       y2="-1.2469474"
       gradientUnits="userSpaceOnUse"
       spreadMethod="pad" />
    <linearGradient
       inkscape:collect="always"
       xlink:href="#linearGradient5334"
       id="linearGradient5340"
       x1="322.32947"
       y1="552.06677"
       x2="322.32947"
       y2="481.1734"
       gradientUnits="userSpaceOnUse" />
    <linearGradient
       inkscape:collect="always"
       xlink:href="#linearGradient5342"
       id="linearGradient5348"
       x1="324.91278"
       y1="579.2334"
       x2="324.91278"
       y2="558.32672"
       gradientUnits="userSpaceOnUse" />
    <linearGradient
       inkscape:collect="always"
       xlink:href="#linearGradient5350"
       id="linearGradient5356"
       x1="320.94983"
       y1="680.44763"
       x2="320.94983"
       y2="588.68378"
       gradientUnits="userSpaceOnUse" />
    <linearGradient
       inkscape:collect="always"
       xlink:href="#linearGradient5279-6"
       id="linearGradient5311-6"
       x1="38.27774"
       y1="85.598885"
       x2="38.27774"
       y2="-1.2469474"
       gradientUnits="userSpaceOnUse"
       spreadMethod="pad" />
    <linearGradient
       id="linearGradient5279-6">
      <stop
         style="stop-color:#669900;stop-opacity:1;"
         offset="0"
         id="stop5281-1" />
      <stop
         style="stop-color:#99cc33;stop-opacity:1;"
         offset="1"
         id="stop5283-9" />
    </linearGradient>
    <linearGradient
       inkscape:collect="always"
       xlink:href="#linearGradient5279-6"
       id="linearGradient5372"
       x1="38.27774"
       y1="85.598885"
       x2="38.27774"
       y2="-1.2469474"
       gradientUnits="userSpaceOnUse"
       spreadMethod="pad" />
    <linearGradient
       id="linearGradient5374">
      <stop
         style="stop-color:#669900;stop-opacity:1;"
         offset="0"
         id="stop5376" />
      <stop
         style="stop-color:#99cc33;stop-opacity:1;"
         offset="1"
         id="stop5378" />
    </linearGradient>
    <linearGradient
       inkscape:collect="always"
       xlink:href="#linearGradient5279-6"
       id="linearGradient5380"
       x1="38.27774"
       y1="85.598885"
       x2="38.27774"
       y2="-1.2469474"
       gradientUnits="userSpaceOnUse"
       spreadMethod="pad" />
    <linearGradient
       id="linearGradient5382">
      <stop
         style="stop-color:#669900;stop-opacity:1;"
         offset="0"
         id="stop5384" />
      <stop
         style="stop-color:#99cc33;stop-opacity:1;"
         offset="1"
         id="stop5386" />
    </linearGradient>
    <linearGradient
       inkscape:collect="always"
       xlink:href="#linearGradient5279-6"
       id="linearGradient5388"
       x1="38.27774"
       y1="85.598885"
       x2="38.27774"
       y2="-1.2469474"
       gradientUnits="userSpaceOnUse"
       spreadMethod="pad" />
    <linearGradient
       id="linearGradient5390">
      <stop
         style="stop-color:#669900;stop-opacity:1;"
         offset="0"
         id="stop5392" />
      <stop
         style="stop-color:#99cc33;stop-opacity:1;"
         offset="1"
         id="stop5394" />
    </linearGradient>
    <linearGradient
       inkscape:collect="always"
       xlink:href="#linearGradient5279-6"
       id="linearGradient5396"
       x1="38.27774"
       y1="85.598885"
       x2="38.27774"
       y2="-1.2469474"
       gradientUnits="userSpaceOnUse"
       spreadMethod="pad" />
    <linearGradient
       id="linearGradient5398">
      <stop
         style="stop-color:#669900;stop-opacity:1;"
         offset="0"
         id="stop5400" />
      <stop
         style="stop-color:#99cc33;stop-opacity:1;"
         offset="1"
         id="stop5402" />
    </linearGradient>
    <filter
       inkscape:collect="always"
       id="filter5484"
       color-interpolation-filters="sRGB">
      <feGaussianBlur
         inkscape:collect="always"
         stdDeviation="1.2059813"
         id="feGaussianBlur5486" />
    </filter>
    <linearGradient
       inkscape:collect="always"
       xlink:href="#linearGradient5350"
       id="linearGradient5495"
       gradientUnits="userSpaceOnUse"
       x1="320.94983"
       y1="680.44763"
       x2="320.94983"
       y2="588.68378" />
    <linearGradient
       inkscape:collect="always"
       xlink:href="#linearGradient5342"
       id="linearGradient5497"
       gradientUnits="userSpaceOnUse"
       x1="324.91278"
       y1="579.2334"
       x2="324.91278"
       y2="558.32672" />
    <linearGradient
       inkscape:collect="always"
       xlink:href="#linearGradient5334"
       id="linearGradient5499"
       gradientUnits="userSpaceOnUse"
       x1="322.32947"
       y1="552.06677"
       x2="322.32947"
       y2="481.1734" />
    <linearGradient
       inkscape:collect="always"
       xlink:href="#linearGradient5279"
       id="linearGradient5501"
       gradientUnits="userSpaceOnUse"
       spreadMethod="pad"
       x1="38.27774"
       y1="85.598885"
       x2="38.27774"
       y2="-1.2469474" />
    <linearGradient
       inkscape:collect="always"
       xlink:href="#linearGradient5279"
       id="linearGradient5503"
       gradientUnits="userSpaceOnUse"
       spreadMethod="pad"
       x1="38.27774"
       y1="85.598885"
       x2="38.27774"
       y2="-1.2469474" />
    <linearGradient
       inkscape:collect="always"
       xlink:href="#linearGradient5279"
       id="linearGradient5505"
       gradientUnits="userSpaceOnUse"
       spreadMethod="pad"
       x1="38.27774"
       y1="85.598885"
       x2="38.27774"
       y2="-1.2469474" />
    <linearGradient
       inkscape:collect="always"
       xlink:href="#linearGradient5279"
       id="linearGradient5507"
       gradientUnits="userSpaceOnUse"
       spreadMethod="pad"
       x1="38.27774"
       y1="85.598885"
       x2="38.27774"
       y2="-1.2469474" />
    <linearGradient
       inkscape:collect="always"
       xlink:href="#linearGradient5334"
       id="linearGradient3049"
       gradientUnits="userSpaceOnUse"
       x1="322.32947"
       y1="552.06677"
       x2="322.32947"
       y2="481.1734"
       gradientTransform="matrix(0.13131,0,0,0.13131,280.5835,479.1446)" />
    <linearGradient
       inkscape:collect="always"
       xlink:href="#linearGradient5342"
       id="linearGradient3052"
       gradientUnits="userSpaceOnUse"
       x1="324.91278"
       y1="579.2334"
       x2="324.91278"
       y2="558.32672"
       gradientTransform="matrix(0.13131,0,0,0.13131,280.5835,479.1446)" />
    <linearGradient
       inkscape:collect="always"
       xlink:href="#linearGradient5350"
       id="linearGradient3055"
       gradientUnits="userSpaceOnUse"
       x1="320.94983"
       y1="680.44763"
       x2="320.94983"
       y2="588.68378"
       gradientTransform="matrix(0.13131,0,0,0.13131,280.5835,479.1446)" />
  </defs>
  <sodipodi:namedview
     id="base"
     pagecolor="#ffffff"
     bordercolor="#666666"
     borderopacity="1.0"
     inkscape:pageopacity="0.0"
     inkscape:pageshadow="2"
     inkscape:zoom="4.91"
     inkscape:cx="10.688192"
     inkscape:cy="23.472505"
     inkscape:document-units="px"
     inkscape:current-layer="layer1"
     showgrid="false"
     inkscape:window-width="1366"
     inkscape:window-height="744"
     inkscape:window-x="0"
     inkscape:window-y="24"
     inkscape:window-maximized="1"
     fit-margin-top="0"
     fit-margin-left="0"
     fit-margin-right="0"
     fit-margin-bottom="0" />
  <metadata
     id="metadata7">
    <rdf:RDF>
      <cc:Work
         rdf:about="">
        <dc:format>image/svg+xml</dc:format>
        <dc:type
           rdf:resource="http://purl.org/dc/dcmitype/StillImage" />
        <dc:title></dc:title>
      </cc:Work>
    </rdf:RDF>
  </metadata>
  <g
     inkscape:label="Layer 1"
     inkscape:groupmode="layer"
     id="layer1"
     transform="translate(-286.9961,-562.26914)">
    <rect
       style="opacity:0;fill:none;stroke:#000000;stroke-width:0.12834224;stroke-opacity:1"
       id="rect5488"
       width="71.871658"
       height="71.871658"
       x="287.06027"
       y="515.33331"
       rx="0.72192514"
       ry="0.72192514"
       inkscape:export-filename="/home/roberto/agit-icon.ldpi.png"
       inkscape:export-xdpi="45"
       inkscape:export-ydpi="45" />
    <g
       id="g3001"
       transform="matrix(0.68798816,0,0,0.68798816,297.68262,521.26917)"
       style="fill:url(#linearGradient5311);fill-opacity:1"
       inkscape:export-filename="/home/roberto/agit-icon.ldpi.png"
       inkscape:export-xdpi="45"
       inkscape:export-ydpi="45" />
    <path
       inkscape:connector-curvature="0"
       style="fill:none;stroke:none"
       d="m 316.62758,554.64567 c 0,-4.11437 0,-8.22876 0,-12.34314 4.24569,0 8.49138,0 12.73707,0 0,8.22877 0,16.45752 0,24.68628 -4.24569,0 -8.49138,0 -12.73707,0 0,-4.11437 0,-8.22876 0,-12.34314 z"
       id="path1919"
       inkscape:export-filename="/home/roberto/agit-icon.ldpi.png"
       inkscape:export-xdpi="45"
       inkscape:export-ydpi="45" />
    <path
       id="path1917"
       style="fill:#888888;fill-opacity:1;stroke:none"
       d="m 298.96439,574.77149 0,-1.07163 -1.75061,0 0,-0.93256 1.75061,0 0,-1.20252 1.04708,0 0,1.20252 1.74242,0 0,0.93256 -1.74242,0 -0.0173,1.0694 -1.02982,0.002 z m -1.72101,1.35312 -0.005,-1.00136 4.51557,0 -3.7e-4,1.00618 -4.51,-0.005 z m 1.72091,4.45097 c -0.77399,-0.0997 -1.57056,-0.83155 -1.68185,-1.69012 -0.10674,-0.71779 0.0472,-1.55563 0.6406,-2.02933 0.26024,-0.17739 0.61425,-0.37613 0.92643,-0.35248 0.009,0.31778 -0.009,0.70402 0,1.02179 -0.37183,0.0414 -0.73176,0.46404 -0.72427,0.85101 0.009,0.50359 0.23199,0.96628 0.71648,1.117 0.53591,0.18031 1.14938,0.12903 1.64547,-0.17076 0.40982,-0.31932 0.44774,-0.91384 0.23339,-1.36627 -0.0964,-0.24897 -0.30426,-0.43174 -0.58636,-0.43098 l 0,0.88632 -0.79544,0 0,-1.90811 2.40879,0 0,0.68617 -0.65978,0.006 c 0.61569,0.35098 0.67879,1.10848 0.64724,1.63399 0.0222,0.90276 -0.8697,1.63881 -1.7543,1.73723 -0.32003,0.024 -0.59082,0.0252 -1.0164,0.008 z m 8.68258,-9.66704 c 0.72638,0 1.31114,0.64516 1.31114,1.44654 l 0,5.47627 c 0,0.80138 -0.58476,1.44655 -1.31114,1.44655 -0.72637,0 -1.31114,-0.64517 -1.31114,-1.44655 l 0,-5.47627 c 0,-0.80138 0.58477,-1.44654 1.31114,-1.44654 z m -16.30153,0 c 0.72638,0 1.31115,0.64516 1.31115,1.44654 l 0,5.47627 c 0,0.80138 -0.58477,1.44655 -1.31115,1.44655 -0.72637,0 -1.31115,-0.64517 -1.31115,-1.44655 l 0,-5.47627 c 0,-0.80138 0.58477,-1.44654 1.31115,-1.44654 z m 2.01834,0.19313 0,9.23033 c 0,0.45793 0.5535,1.05735 1.01142,1.05735 h 1.4477 v 3.14691 c 0,0.80136 0.58352,1.44653 1.30993,1.44653 0.72638,0 1.30994,-0.64517 1.30994,-1.44653 v -3.14691 h 2.10551 v 3.14691 c 0,0.80136 0.58352,1.44653 1.30993,1.44653 0.72639,0 1.31795,-0.64517 1.31795,-1.44653 v -3.14691 h 1.43966 c 0.45792,0 1.01142,-0.59942 1.01142,-1.05735 v -9.23033 h -12.26357 z m 2.19463,-7.3784 1.04459,1.81625 c -1.90146,0.93271 -3.19035,2.75885 -3.19035,4.85395 h 6.08343 6.08344 c 0,-2.09505 -1.2889,-3.92122 -3.19036,-4.85395 l 1.04484,-1.81623 c 0,0 0.0494,-0.0965 -0.0443,-0.15061 -0.0939,-0.0541 -0.15688,0.0382 -0.15688,0.0382 l -1.06079,1.83223 c -0.80775,-0.35949 -1.71581,-0.56254 -2.67604,-0.56254 -0.96027,0 -1.86835,0.20305 -2.67603,0.56254 l -1.06079,-1.83223 c 0,0 -0.0592,-0.0924 -0.15362,-0.0385 -0.0946,0.054 -0.0473,0.15088 -0.0473,0.15088 z m 1.04459,3.51797 c 0.31875,0 0.57861,0.25987 0.57861,0.57863 0,0.31874 -0.25986,0.57059 -0.57861,0.57059 -0.31875,0 -0.57861,-0.25184 -0.57861,-0.57059 0,-0.31877 0.25986,-0.57863 0.57861,-0.57863 z m 5.78616,0 c 0.31875,0 0.57862,0.25987 0.57862,0.57863 -10e-6,0.31874 -0.25987,0.57059 -0.57862,0.57059 -0.31876,0 -0.57862,-0.25184 -0.57862,-0.57059 0,-0.31877 0.25986,-0.57863 0.57862,-0.57863 z"
       inkscape:connector-curvature="0" />
  </g>
</svg>
